<svg xmlns="http://www.w3.org/2000/svg" xmlns:xlink="http://www.w3.org/1999/xlink" width="5938.74" height="1325.258" viewBox="0 0 5938.74 1325.258">
  <defs>
    <clipPath id="clip-path">
      <rect id="Rectángulo_248" data-name="Rectángulo 248" width="5938.739" height="1325.258" fill="none"/>
    </clipPath>
  </defs>
  <g id="Grupo_1805" data-name="Grupo 1805" transform="translate(0)">
    <path id="Trazado_19" data-name="Trazado 19" d="M1441.874,2.614,1220.628,921.831,980.345,2.614H768.637L526.376,921.831,303.263,2.614H0L364.271,1274.69H652.281L873.533,401.223l223.108,873.466h288.011L1747,2.614Z" transform="translate(0 13.195)" fill="#f1f1f1"/>
    <g id="Grupo_1804" data-name="Grupo 1804" transform="translate(0.001)">
      <g id="Grupo_1803" data-name="Grupo 1803" clip-path="url(#clip-path)">
        <path id="Trazado_20" data-name="Trazado 20" d="M958.669,0c387.941,0,670.31,276.563,670.31,662.629s-282.368,662.629-670.31,662.629c-386.066,0-668.435-276.569-668.435-662.629S572.6,0,958.669,0m0,241.976c-236.237,0-388,180.545-388,420.653,0,238.106,151.764,420.647,388,420.647s389.876-182.541,389.876-420.647c0-240.108-153.639-420.653-389.876-420.653" transform="translate(1464.984)" fill="#f1f1f1"/>
        <path id="Trazado_21" data-name="Trazado 21" d="M1197.2,0c387.941,0,670.31,276.563,670.31,662.629s-282.369,662.629-670.31,662.629c-386.067,0-668.435-276.569-668.435-662.629S811.135,0,1197.2,0m0,241.976c-236.238,0-388,180.545-388,420.653,0,238.106,151.764,420.647,388,420.647s389.876-182.541,389.876-420.647c0-240.108-153.639-420.653-389.876-420.653" transform="translate(2669.002)" fill="#f1f1f1"/>
        <path id="Trazado_22" data-name="Trazado 22" d="M1245.438,754.082,738.172,2.614h319.742L1385.554,513.8,1709.27,2.614h319.749L1525.726,754.082V1274.7H1245.438Z" transform="translate(3725.992 13.193)" fill="#f1f1f1"/>
        <path id="Trazado_23" data-name="Trazado 23" d="M1086.125,167.358c84.527,0,155.574,71.162,155.574,155.574,0,84.527-71.047,155.574-155.574,155.574S930.55,407.46,930.55,322.932c0-84.412,71.047-155.574,155.575-155.574" transform="translate(4697.04 844.755)" fill="#f1f1f1"/>
        <path id="Trazado_24" data-name="Trazado 24" d="M826.5,26.738c281.788,0,510.218,241.868,510.218,540.232S1108.288,1107.2,826.5,1107.2,316.283,865.334,316.283,566.97,544.713,26.738,826.5,26.738" transform="translate(1596.469 134.963)" fill="#f1f1f1"/>
      </g>
    </g>
  </g>
</svg>
